<svg xmlns="http://www.w3.org/2000/svg" height="570" width="570">
  <g fill="#61DAFB" transform="matrix(.684 0 0 .684 112.7 3.2)" style="fill:#345;fill-opacity:1">
    <path d="M666.3 296.5c0-32.5-40.7-63.3-103.1-82.4 14.4-63.6 8-114.2-20.2-130.4-6.5-3.8-14.1-5.6-22.4-5.6v22.3c4.6 0 8.3.9 11.4 2.6 13.6 7.8 19.5 37.5 14.9 75.7-1.1 9.4-2.9 19.3-5.1 29.4-19.6-4.8-41-8.5-63.5-10.9a487.8 487.8 0 0 0-41.6-50c32.6-30.3 63.2-46.9 84-46.9V78c-27.5 0-63.5 19.6-99.9 53.6-36.4-33.8-72.4-53.2-99.9-53.2v22.3c20.7 0 51.4 16.5 84 46.6-14 14.7-28 31.4-41.3 49.9-22.6 2.4-44 6.1-63.6 11-2.3-10-4-19.7-5.2-29-4.7-38.2 1.1-67.9 14.6-75.8 3-1.8 6.9-2.6 11.5-2.6V78.5c-8.4 0-16 1.8-22.6 5.6-28.1 16.2-34.4 66.7-19.9 130.1-62.2 19.2-102.7 49.9-102.7 82.3 0 32.5 40.7 63.3 103.1 82.4-14.4 63.6-8 114.2 20.2 130.4 6.5 3.8 14.1 5.6 22.5 5.6 27.5 0 63.5-19.6 99.9-53.6 36.4 33.8 72.4 53.2 99.9 53.2 8.4 0 16-1.8 22.6-5.6 28.1-16.2 34.4-66.7 19.9-130.1 62-19.1 102.5-49.9 102.5-82.3zm-130.2-66.7c-3.7 12.9-8.3 26.2-13.5 39.5-4.1-8-8.4-16-13.1-24-4.6-8-9.5-15.8-14.4-23.4 14.2 2.1 27.9 4.7 41 7.9zm-45.8 106.5c-7.8 13.5-15.8 26.3-24.1 38.2a520.32 520.32 0 0 1-90.2.1c-8.3-11.9-16.4-24.6-24.2-38-7.6-13.1-14.5-26.4-20.8-39.8 6.2-13.4 13.2-26.8 20.7-39.9 7.8-13.5 15.8-26.3 24.1-38.2a520.32 520.32 0 0 1 90.2-.1c8.3 11.9 16.4 24.6 24.2 38 7.6 13.1 14.5 26.4 20.8 39.8a559.9 559.9 0 0 1-20.7 39.9zm32.3-13c5.4 13.4 10 26.8 13.8 39.8a448.8 448.8 0 0 1-41.2 8c4.9-7.7 9.8-15.6 14.4-23.7 4.6-8 8.9-16.1 13-24.1zM421.2 430c-9.3-9.6-18.6-20.3-27.8-32 9 .4 18.2.7 27.5.7 9.4 0 18.7-.2 27.8-.7-9 11.7-18.3 22.4-27.5 32zm-74.4-58.9c-14.2-2.1-27.9-4.7-41-7.9 3.7-12.9 8.3-26.2 13.5-39.5 4.1 8 8.4 16 13.1 24 4.7 8 9.5 15.8 14.4 23.4zM420.7 163c9.3 9.6 18.6 20.3 27.8 32-9-.4-18.2-.7-27.5-.7-9.4 0-18.7.2-27.8.7 9-11.7 18.3-22.4 27.5-32zm-74 58.9a552.45 552.45 0 0 0-27.4 47.7c-5.4-13.4-10-26.8-13.8-39.8 13.1-3.1 26.9-5.8 41.2-7.9zm-90.5 125.2c-35.4-15.1-58.3-34.9-58.3-50.6 0-15.7 22.9-35.6 58.3-50.6 8.6-3.7 18-7 27.7-10.1 5.7 19.6 13.2 40 22.5 60.9-9.2 20.8-16.6 41.1-22.2 60.6-9.9-3.1-19.3-6.5-28-10.2zM310 490c-13.6-7.8-19.5-37.5-14.9-75.7 1.1-9.4 2.9-19.3 5.1-29.4 19.6 4.8 41 8.5 63.5 10.9a487.8 487.8 0 0 0 41.6 50c-32.6 30.3-63.2 46.9-84 46.9-4.5-.1-8.3-1-11.3-2.7zm237.2-76.2c4.7 38.2-1.1 67.9-14.6 75.8-3 1.8-6.9 2.6-11.5 2.6-20.7 0-51.4-16.5-84-46.6 14-14.7 28-31.4 41.3-49.9 22.6-2.4 44-6.1 63.6-11 2.3 10.1 4.1 19.8 5.2 29.1zm38.5-66.7c-8.6 3.7-18 7-27.7 10.1-5.7-19.6-13.2-40-22.5-60.9 9.2-20.8 16.6-41.1 22.2-60.6 9.9 3.1 19.3 6.5 28.1 10.2 35.4 15.1 58.3 34.9 58.3 50.6-.1 15.7-23 35.6-58.4 50.6zM320.8 78.4Z" style="fill:#345;fill-opacity:1"/>
    <circle cx="420.9" cy="296.5" r="45.7" style="fill:#345;fill-opacity:1"/>
    <path d="M520.5 78.1Z" style="fill:#345;fill-opacity:1"/>
  </g>
  <g style="stroke:#345;stroke-width:3.76866;stroke-miterlimit:4;stroke-dasharray:none;stroke-opacity:1">
    <path transform="matrix(2.73085 0 0 2.73085 -19.93 27.1)" d="M9.75 55.79c30.67-9.8 24.07-9.22 59.58-15.44 8.5 2.4 22.9 5.68 22.24 12.3-6.24 2.31-15.35-6.46-20.26-1.55.01 18.42 5.97 38.2 13.48 55.75 7.52 17.55 18.88 32.86 34.3 42.36 20.42 12.67 41.91 14.93 63.64 15.65 6.67.24 17.31-1.47 20.02 0-4.91 8.7-19.28 12.82-34.22 14.71-14.94 1.9-30.44 1.6-37.64 1.46-15.89-.5-29.6-2.65-42.07-7.29-32.18-12.96-50.4-39.03-64.15-67.48-7.9-16.57-13.38-34-14.92-50.47Z" style="fill:none;stroke:#345;stroke-width:3.76866;stroke-linecap:round;stroke-linejoin:round;stroke-miterlimit:4;stroke-dasharray:none;stroke-opacity:1"/>
    <path d="M54.07 32.35c-.43.88-.39 2-.03 2.9.78 1.99 2.8 3.26 4.4 4.69.72.65 2.27.8 2.36 1.76.22 2.2-2.7 3.57-4.46 4.93-1.31 1.01-3.84.77-4.45 2.31-.42 1.06.84 2.1 1.17 3.19.47 1.53 1.64 3.15 1.15 4.67-.6 1.84-2.7 2.85-4.42 3.76-1.9 1-4.46.5-6.21 1.71-1.68 1.16-3.49 2.91-3.56 4.93-.03.91-.38 2.68-.23 3.11 12.86-4.15 20.2-6.5 28.7-8.6 8.5-2.09 16.1-3.4 29.57-5.69-.07-.45-1.2-1.85-1.64-2.65-1-1.76-3.41-2.47-5.43-2.72-2.12-.27-4.16 1.36-6.3 1.35-1.95 0-4.28.07-5.66-1.28-1.14-1.13-.85-3.1-1.14-4.68-.21-1.12.42-2.62-.44-3.37-1.25-1.08-3.38.3-5.02.01-2.18-.39-5.4-.26-6.23-2.3-.36-.9.94-1.75 1.28-2.66.76-2 1.96-4.07 1.73-6.19a3.73 3.73 0 0 0-1.36-2.56c-1.69-1.19-4.37-1.32-7.54-.52-3.16.8-5.34 2.14-6.24 3.9z" style="fill:none;stroke:#345;stroke-width:3.76866;stroke-linecap:round;stroke-linejoin:round;stroke-miterlimit:4;stroke-dasharray:none;stroke-opacity:1" transform="matrix(2.73085 0 0 2.73085 -101.37 -28.02)"/>
    <path transform="matrix(2.73085 0 0 2.73085 -19.93 27.1)" d="M71.84 50.62s-24.56 5.28-35.92 8.55c-8.06 2.32-23.78 8.2-23.78 8.2" style="fill:none;stroke:#345;stroke-width:3.76866;stroke-linecap:butt;stroke-linejoin:miter;stroke-miterlimit:4;stroke-dasharray:none;stroke-opacity:1"/>
  </g>
</svg>
